#!OML:ASF F:\VICON\USERDATA\INSTALL\rory3\rory3.ASF
:FULLY-SPECIFIED
:DEGREES
129
root -8.4765 14.5844 -3.71992 11.9521 3.06419 0.0634774
lowerback 30.2896 1.12274 1.00872
upperback 7.39501 2.09185 3.33624
thorax -8.38873 0.982375 2.41304
lowerneck -14.4536 11.4263 -2.35873
upperneck 6.79746 17.2088 -12.1374
head 5.31216 7.64138 -1.80057
rclavicle 1.11319e-014 1.98785e-014
rhumerus -33.6769 -30.0704 -56.9156
rradius 64.8401
rwrist 17.6017
rhand -39.6517 -15.3669
rfingers 7.12502
rthumb -12.632 -44.9649
lclavicle 1.11319e-014 1.98785e-014
lhumerus 11.4955 18.8768 66.1989
lradius 61.0126
lwrist -13.0267
lhand -31.6435 45.4698
lfingers 7.12502
lthumb -4.90448 75.393
rfemur -43.0055 -8.36946 17.2704
rtibia 91.7022
rfoot -31.1553 7.55771
rtoes -6.96826
lfemur -75.0522 3.57506 -13.2691
ltibia 68.9518
lfoot 3.15739 -17.2122
ltoes -23.9318
130
root -8.40278 14.5543 -3.6319 11.4755 2.49492 -0.0882961
lowerback 30.6383 1.10293 1.04336
upperback 7.65234 2.07858 3.39858
thorax -8.26223 0.972086 2.46689
lowerneck -14.6787 11.4628 -2.50047
upperneck 6.79653 17.3143 -12.2535
head 5.35444 7.6724 -1.79104
rclavicle -1.59028e-015 -9.54166e-015
rhumerus -33.5839 -30.0277 -56.9756
rradius 64.8825
rwrist 17.3704
rhand -39.6624 -14.9149
rfingers 7.12502
rthumb -12.6423 -44.5123
lclavicle -1.59028e-015 -9.54166e-015
lhumerus 11.837 20.1888 66.4983
lradius 60.44
lwrist -14.7356
lhand -28.9242 38.3145
lfingers 7.12502
lthumb -2.27853 68.282
rfemur -42.3692 -8.16244 16.8074
rtibia 91.9389
rfoot -30.9875 8.33499
rtoes -7.05568
lfemur -74.6486 3.96251 -13.4349
ltibia 69.9145
lfoot 2.28566 -16.9068
ltoes -23.35
131
root -8.35253 14.5501 -3.52799 10.6482 3.49321 0.291521
lowerback 31.513 0.493752 1.18214
upperback 7.71056 1.39415 3.46844
thorax -8.57927 0.652391 2.72032
lowerneck -14.4495 11.5362 -2.37433
upperneck 6.83789 17.3913 -12.3437
head 5.35316 7.71284 -1.8375
rclavicle 3.97569e-015 -1.90833e-014
rhumerus -33.7329 -29.9447 -56.9091
rradius 64.7929
rwrist 17.0574
rhand -39.4826 -14.2099
rfingers 7.12502
rthumb -12.469 -43.8179
lclavicle 3.97569e-015 -1.90833e-014
lhumerus 11.5317 19.6695 66.1843
lradius 60.9047
lwrist -13.7869
lhand -30.5168 41.4983
lfingers 7.12502
lthumb -3.81655 71.4439
rfemur -40.754 -9.43245 16.0629
rtibia 92.0612
rfoot -31.0511 9.28711
rtoes -5.97932
lfemur -73.7881 3.08637 -14.0463
ltibia 70.6645
lfoot 1.37325 -16.9754
ltoes -22.3916
132
root -8.28757 14.5226 -3.44188 10.4177 3.61486 0.39631
lowerback 32.2114 0.198701 1.38693
upperback 7.13107 1.11694 3.55437
thorax -8.80852 0.495795 2.60615
lowerneck -14.0895 11.6054 -2.24944
upperneck 6.91464 17.4752 -12.5453
head 5.35355 7.75213 -1.92157
rclavicle 4.77083e-015 -2.70347e-014
rhumerus -33.9259 -30.0273 -56.7308
rradius 64.412
rwrist 17.0974
rhand -39.5307 -13.5451
rfingers 7.12502
rthumb -12.5154 -43.1503
lclavicle 4.77083e-015 -2.70347e-014
lhumerus 11.1351 19.5394 65.933
lradius 60.9912
lwrist -13.5462
lhand -31.6649 42.1392
lfingers 7.12502
lthumb -4.92516 72.062
rfemur -40.2113 -9.87182 15.5107
rtibia 92.2658
rfoot -30.9508 9.90158
rtoes -5.55759
lfemur -73.6906 2.95485 -14.4704
ltibia 71.5463
lfoot 0.622869 -16.7451
ltoes -21.4587
133
root -8.21726 14.4804 -3.36758 10.4413 2.9929 0.291555
lowerback 32.3695 0.245953 1.40381
upperback 7.02271 1.18655 3.56015
thorax -8.99273 0.525427 2.57859
lowerneck -14.1533 11.5864 -2.46035
upperneck 7.04513 17.4866 -12.3881
head 5.37227 7.74973 -1.83933
rclavicle 9.54166e-015 -7.95139e-016
rhumerus -33.948 -30.216 -56.655
rradius 64.1425
rwrist 17.1669
rhand -39.4803 -12.8376
rfingers 7.12502
rthumb -12.4667 -42.4458
lclavicle 9.54166e-015 -7.95139e-016
lhumerus 11.1799 19.7586 65.9637
lradius 60.6013
lwrist -13.5559
lhand -32.0273 43.3266
lfingers 7.12502
lthumb -5.27513 73.2409
rfemur -39.9832 -9.6298 15.1772
rtibia 92.2744
rfoot -31.1296 9.22799
rtoes -9.37857
lfemur -73.9515 3.45047 -14.7484
ltibia 72.5409
lfoot -0.119845 -16.3448
ltoes -21.19
134
root -8.14723 14.4442 -3.29107 10.4265 2.52614 0.050215
lowerback 32.4466 0.215914 1.62766
upperback 7.04455 1.22396 3.60649
thorax -8.99589 0.536736 2.49418
lowerneck -14.2636 11.5214 -2.62203
upperneck 7.03394 17.4153 -12.2588
head 5.35688 7.71521 -1.78211
rclavicle -6.36111e-015 -3.97569e-014
rhumerus -33.9976 -30.3073 -56.6154
rradius 64.0241
rwrist 16.8949
rhand -39.6253 -11.9364
rfingers 7.12502
rthumb -12.6066 -41.536
lclavicle -6.36111e-015 -3.97569e-014
lhumerus 11.1162 19.8923 65.9619
lradius 60.5888
lwrist -13.458
lhand -31.9509 43.0188
lfingers 7.12502
lthumb -5.20129 72.9349
rfemur -39.5945 -9.4323 14.9886
rtibia 92.2612
rfoot -31.3479 8.56172
rtoes -12.6378
lfemur -74.2297 3.87174 -14.9035
ltibia 73.5747
lfoot -0.846816 -16.0164
ltoes -21.2117
135
root -8.08226 14.4177 -3.21238 10.3445 2.10396 -0.0435596
lowerback 32.3331 0.208227 1.62513
upperback 7.18973 1.2065 3.66786
thorax -8.79298 0.527169 2.56682
lowerneck -14.1059 11.5421 -2.60832
upperneck 6.86059 17.4233 -12.3896
head 5.29123 7.73047 -1.83501
rclavicle 9.54166e-015 3.18055e-014
rhumerus -34.0047 -30.2071 -56.5923
rradius 64.0283
rwrist 16.592
rhand -39.7578 -11.8968
rfingers 7.12502
rthumb -12.7343 -41.4885
lclavicle 9.54166e-015 3.18055e-014
lhumerus 10.7792 19.9863 65.798
lradius 61.0498
lwrist -13.2435
lhand -31.3478 40.8819
lfingers 7.12502
lthumb -4.61894 70.8115
rfemur -39.2913 -9.21682 14.6049
rtibia 92.3896
rfoot -31.3409 8.84719
rtoes -12.9842
lfemur -74.354 4.19973 -15.1763
ltibia 74.5452
lfoot -1.3796 -15.7007
ltoes -20.9592
136
root -8.0176 14.3943 -3.13733 10.3614 1.707 0.0178965
lowerback 31.8417 0.237753 1.50466
upperback 7.75124 1.18197 3.60774
thorax -8.67437 0.541932 2.77508
lowerneck -14.0847 11.5724 -2.54354
upperneck 6.74657 17.4661 -12.613
head 5.28239 7.74798 -1.90796
rclavicle -1.59028e-015 1.35174e-014
rhumerus -33.7733 -30.3326 -56.5922
rradius 63.8513
rwrist 16.52
rhand -39.8917 -12.4669
rfingers 7.12502
rthumb -12.8634 -42.0505
lclavicle -1.59028e-015 1.35174e-014
lhumerus 10.8916 20.1388 65.8975
lradius 61.1269
lwrist -13.2643
lhand -31.2017 39.8919
lfingers 7.12502
lthumb -4.47787 69.8246
rfemur -39.2277 -9.05443 14.069
rtibia 92.6331
rfoot -31.348 9.15757
rtoes -13.4384
lfemur -74.5509 4.40432 -15.5604
ltibia 75.458
lfoot -1.6501 -15.3142
ltoes -20.5498
137
root -7.95469 14.3639 -3.06702 10.4799 1.56163 0.0166737
lowerback 31.7422 0.108434 1.64173
upperback 7.773 1.05472 3.59295
thorax -8.59446 0.479916 2.72559
lowerneck -14.4204 11.5749 -2.6815
upperneck 6.89615 17.5119 -12.4244
head 5.35611 7.7535 -1.80673
rclavicle 1.59028e-015 -1.82882e-014
rhumerus -33.63 -30.6675 -56.6872
rradius 63.6921
rwrist 16.4988
rhand -39.5752 -13.1188
rfingers 7.12502
rthumb -12.5583 -42.7214
lclavicle 1.59028e-015 -1.82882e-014
lhumerus 11.1733 20.1734 65.8621
lradius 60.963
lwrist -13.1694
lhand -31.1503 41.3665
lfingers 7.12502
lthumb -4.42823 71.3002
rfemur -39.3943 -9.079 13.6143
rtibia 92.9985
rfoot -31.1331 10.2477
rtoes -11.7602
lfemur -74.9885 4.47097 -15.8637
ltibia 76.3983
lfoot -1.97244 -15.192
ltoes -21.1778
138
root -7.89309 14.3328 -2.99704 10.532 1.52745 0.0414359
lowerback 32.183 -0.0911503 1.80594
upperback 7.24272 0.873948 3.64919
thorax -8.658 0.368001 2.5699
lowerneck -14.5057 11.6391 -2.61374
upperneck 7.01451 17.6114 -12.4529
head 5.42089 7.78851 -1.80492
rclavicle 7.95139e-015 4.77083e-015
rhumerus -33.7056 -30.6048 -56.7707
rradius 63.7296
rwrist 16.1559
rhand -39.248 -13.9974
rfingers 7.12502
rthumb -12.2428 -43.619
lclavicle 7.95139e-015 4.77083e-015
lhumerus 11.3045 20.2241 65.7784
lradius 60.7371
lwrist -12.9792
lhand -31.0465 42.2065
lfingers 7.12502
lthumb -4.328 72.1423
rfemur -39.3994 -9.12903 13.0827
rtibia 93.3689
rfoot -30.742 11.8155
rtoes -8.81779
lfemur -75.3756 4.35569 -16.1
ltibia 77.3035
lfoot -2.26069 -15.1714
ltoes -21.9812
139
root -7.83954 14.2997 -2.92893 10.5189 1.45123 0.0112296
lowerback 32.4331 -0.180785 1.827
upperback 7.13206 0.790165 3.72487
thorax -8.87734 0.327241 2.6707
lowerneck -14.2522 11.6662 -2.49703
upperneck 6.74781 17.609 -12.7229
head 5.33272 7.80309 -1.92104
rclavicle -4.77083e-015 -7.95139e-016
rhumerus -33.8041 -30.5011 -56.738
rradius 63.8459
rwrist 15.7921
rhand -39.3415 -14.2545
rfingers 7.12502
rthumb -12.3329 -43.8707
lclavicle -4.77083e-015 -7.95139e-016
lhumerus 11.3651 20.4596 65.9691
lradius 60.5845
lwrist -12.9744
lhand -30.9764 41.8885
lfingers 7.12502
lthumb -4.26031 71.8256
rfemur -39.1287 -9.14249 12.766
rtibia 93.6033
rfoot -30.668 12.0901
rtoes -8.19663
lfemur -75.7085 4.3372 -16.1964
ltibia 78.1591
lfoot -2.41667 -15.2133
ltoes -22.2209
140
root -7.77004 14.2708 -2.868 10.5483 1.39669 0.407746
lowerback 32.5316 -0.315413 1.75932
upperback 7.15605 0.591061 3.62388
thorax -8.881 0.236032 2.67242
lowerneck -14.1837 11.6482 -2.49961
upperneck 6.51036 17.5516 -12.7556
head 5.24678 7.79406 -1.94735
rclavicle -9.54166e-015 2.38542e-014
rhumerus -33.6117 -30.8047 -56.7776
rradius 63.7144
rwrist 15.7712
rhand -39.3101 -14.637
rfingers 7.12502
rthumb -12.3027 -44.2551
lclavicle -9.54166e-015 2.38542e-014
lhumerus 11.7104 20.6562 66.2486
lradius 60.4485
lwrist -13.0087
lhand -30.8837 42.7156
lfingers 7.12502
lthumb -4.17079 72.6546
rfemur -38.8007 -9.44302 11.8894
rtibia 93.754
rfoot -30.8594 11.9647
rtoes -8.97797
lfemur -75.978 4.06015 -16.7884
ltibia 78.91
lfoot -2.4509 -15.1975
ltoes -22.4447
141
root -7.67901 14.2604 -2.81251 10.6907 1.27811 1.22191
lowerback 32.5029 -0.530383 1.58955
upperback 7.22148 0.228639 3.31022
thorax -8.78048 0.0719167 2.5614
lowerneck -14.4795 11.6383 -2.81961
upperneck 6.46196 17.5701 -12.4631
head 5.22395 7.80612 -1.80351
rclavicle 8.74653e-015 9.54166e-015
rhumerus -33.2197 -31.1576 -57.0095
rradius 63.3883
rwrist 15.876
rhand -39.1827 -14.8331
rfingers 7.12502
rthumb -12.1798 -44.4585
lclavicle 8.74653e-015 9.54166e-015
lhumerus 12.2004 20.8011 66.3486
lradius 60.131
lwrist -12.96
lhand -30.9498 43.6093
lfingers 7.12502
lthumb -4.23469 73.5469
rfemur -38.7847 -9.80358 10.2052
rtibia 93.9906
rfoot -30.5838 13.6615
rtoes -6.90749
lfemur -76.1796 3.49037 -17.9067
ltibia 79.587
lfoot -2.53397 -14.894
ltoes -22.7158
142
root -7.62545 14.2476 -2.74777 10.6976 0.9538 1.25408
lowerback 32.5841 -0.515612 1.48723
upperback 7.31294 0.208924 3.29413
thorax -8.71206 0.062625 2.60616
lowerneck -15.0315 11.6186 -3.03255
upperneck 6.64092 17.6107 -12.1951
head 5.32706 7.80169 -1.65695
rclavicle -7.15625e-015 2.22639e-014
rhumerus -33.0352 -31.1989 -57.1589
rradius 63.2483
rwrist 15.7941
rhand -39.4034 -15.02
rfingers 7.12502
rthumb -12.3926 -44.6326
lclavicle -7.15625e-015 2.22639e-014
lhumerus 12.6808 20.9633 66.4402
lradius 59.6231
lwrist -13.0561
lhand -31.2882 42.3902
lfingers 7.12502
lthumb -4.56141 72.321
rfemur -38.8726 -9.43654 9.70693
rtibia 94.2538
rfoot -30.2677 14.5023
rtoes -6.44099
lfemur -76.3183 3.59614 -18.0529
ltibia 80.2633
lfoot -2.74155 -14.9926
ltoes -23.0292
